<svg xmlns:svgjs="http://svgjs.dev/svgjs" xmlns:xlink="http://www.w3.org/1999/xlink" xmlns="http://www.w3.org/2000/svg" height="200" width="300" viewBox="0 0 19.006087287620124 11.493781213532390" version="1.1"><g transform="matrix(1,0,0,1,1.229056771917307,7.835406259796904)"><g><path fill-rule="nonzero" fill="#102036" d=" M 5.44814678400213 0 L 5.44814678400213 0.1110000000000001 L 5.16314678400213 0.1110000000000001 L 5.16314678400213 1.0455 L 5.02664678400213 1.0455 L 5.02664678400213 0.1110000000000001 L 4.74014678400213 0.1110000000000001 L 4.74014678400213 0 L 5.44814678400213 0 M 5.78042022150213 1.0065000000000002 Q 5.68667022150213 0.9540000000000001 5.63342022150213 0.8572500000000001 Q 5.580170221502129 0.7605000000000001 5.580170221502129 0.633 Q 5.580170221502129 0.5070000000000001 5.63492022150213 0.4102500000000001 Q 5.68967022150213 0.3135000000000001 5.78417022150213 0.26175000000000004 Q 5.87867022150213 0.21000000000000008 5.995670221502129 0.21000000000000008 Q 6.11267022150213 0.21000000000000008 6.20717022150213 0.26175000000000004 Q 6.30167022150213 0.3135000000000001 6.3564202215021295 0.4095000000000001 Q 6.41117022150213 0.5055000000000001 6.41117022150213 0.633 Q 6.41117022150213 0.7605000000000001 6.354920221502129 0.8572500000000001 Q 6.29867022150213 0.9540000000000001 6.20267022150213 1.0065000000000002 Q 6.10667022150213 1.0590000000000002 5.98967022150213 1.0590000000000002 Q 5.87417022150213 1.0590000000000002 5.78042022150213 1.0065000000000002 M 6.12767022150213 0.9045000000000001 Q 6.1921702215021295 0.8700000000000001 6.231920221502129 0.8010000000000002 Q 6.27167022150213 0.7320000000000001 6.27167022150213 0.633 Q 6.27167022150213 0.534 6.232670221502129 0.4650000000000001 Q 6.1936702215021295 0.39600000000000013 6.13067022150213 0.36225000000000007 Q 6.06767022150213 0.3285000000000001 5.99417022150213 0.3285000000000001 Q 5.91917022150213 0.3285000000000001 5.856920221502129 0.36225000000000007 Q 5.7946702215021295 0.39600000000000013 5.75717022150213 0.4650000000000001 Q 5.719670221502129 0.534 5.719670221502129 0.633 Q 5.719670221502129 0.7335 5.75642022150213 0.8025000000000001 Q 5.7931702215021295 0.8715 5.85467022150213 0.9052500000000001 Q 5.91617022150213 0.9390000000000001 5.98967022150213 0.9390000000000001 Q 6.06317022150213 0.9390000000000001 6.12767022150213 0.9045000000000001 M 7.227942194158379 0.06375000000000008 Q 7.353192194158379 0.12750000000000006 7.419942194158379 0.2460000000000001 Q 7.48669219415838 0.36450000000000005 7.48669219415838 0.5250000000000001 Q 7.48669219415838 0.6855000000000001 7.419942194158379 0.8032500000000001 Q 7.353192194158379 0.921 7.227942194158379 0.9832500000000001 Q 7.102692194158379 1.0455 6.931692194158379 1.0455 L 6.606192194158379 1.0455 L 6.606192194158379 0 L 6.931692194158379 0 Q 7.102692194158379 0 7.227942194158379 0.06375000000000008 M 7.240692194158379 0.8257500000000001 Q 7.34719219415838 0.7185000000000001 7.34719219415838 0.5250000000000001 Q 7.34719219415838 0.33000000000000007 7.239942194158379 0.22050000000000003 Q 7.13269219415838 0.1110000000000001 6.931692194158379 0.1110000000000001 L 6.742692194158379 0.1110000000000001 L 6.742692194158379 0.933 L 6.931692194158379 0.933 Q 7.134192194158379 0.933 7.240692194158379 0.8257500000000001 M 7.830897516424005 1.0065000000000002 Q 7.737147516424005 0.9540000000000001 7.683897516424005 0.8572500000000001 Q 7.630647516424005 0.7605000000000001 7.630647516424005 0.633 Q 7.630647516424005 0.5070000000000001 7.685397516424005 0.4102500000000001 Q 7.740147516424005 0.3135000000000001 7.834647516424005 0.26175000000000004 Q 7.929147516424004 0.21000000000000008 8.046147516424005 0.21000000000000008 Q 8.163147516424004 0.21000000000000008 8.257647516424004 0.26175000000000004 Q 8.352147516424004 0.3135000000000001 8.406897516424005 0.4095000000000001 Q 8.461647516424005 0.5055000000000001 8.461647516424005 0.633 Q 8.461647516424005 0.7605000000000001 8.405397516424005 0.8572500000000001 Q 8.349147516424004 0.9540000000000001 8.253147516424004 1.0065000000000002 Q 8.157147516424004 1.0590000000000002 8.040147516424005 1.0590000000000002 Q 7.924647516424005 1.0590000000000002 7.830897516424005 1.0065000000000002 M 8.178147516424005 0.9045000000000001 Q 8.242647516424006 0.8700000000000001 8.282397516424005 0.8010000000000002 Q 8.322147516424005 0.7320000000000001 8.322147516424005 0.633 Q 8.322147516424005 0.534 8.283147516424005 0.4650000000000001 Q 8.244147516424006 0.39600000000000013 8.181147516424005 0.36225000000000007 Q 8.118147516424004 0.3285000000000001 8.044647516424005 0.3285000000000001 Q 7.969647516424005 0.3285000000000001 7.9073975164240045 0.36225000000000007 Q 7.845147516424005 0.39600000000000013 7.807647516424005 0.4650000000000001 Q 7.770147516424005 0.534 7.770147516424005 0.633 Q 7.770147516424005 0.7335 7.806897516424005 0.8025000000000001 Q 7.843647516424005 0.8715 7.905147516424005 0.9052500000000001 Q 7.966647516424005 0.9390000000000001 8.040147516424005 0.9390000000000001 Q 8.113647516424004 0.9390000000000001 8.178147516424005 0.9045000000000001 M 9.072212701970882 0.4102500000000001 Q 9.12321270197088 0.31500000000000006 9.212462701970882 0.26250000000000007 Q 9.301712701970882 0.21000000000000008 9.41121270197088 0.21000000000000008 Q 9.519212701970881 0.21000000000000008 9.59871270197088 0.25650000000000006 Q 9.678212701970882 0.30300000000000005 9.717212701970881 0.37350000000000005 L 9.717212701970881 0.22350000000000003 L 9.855212701970881 0.22350000000000003 L 9.855212701970881 1.0455 L 9.717212701970881 1.0455 L 9.717212701970881 0.8925000000000001 Q 9.676712701970882 0.9645000000000001 9.59646270197088 1.0117500000000001 Q 9.51621270197088 1.0590000000000002 9.40971270197088 1.0590000000000002 Q 9.300212701970882 1.0590000000000002 9.211712701970882 1.0050000000000001 Q 9.12321270197088 0.9510000000000001 9.072212701970882 0.8535000000000001 Q 9.021212701970882 0.7560000000000001 9.021212701970882 0.6315000000000001 Q 9.021212701970882 0.5055000000000001 9.072212701970882 0.4102500000000001 M 9.679712701970882 0.4710000000000001 Q 9.64221270197088 0.40200000000000014 9.578462701970881 0.3652500000000001 Q 9.51471270197088 0.3285000000000001 9.438212701970881 0.3285000000000001 Q 9.36171270197088 0.3285000000000001 9.298712701970882 0.36450000000000005 Q 9.235712701970881 0.4005000000000001 9.198212701970881 0.46950000000000003 Q 9.160712701970882 0.5385000000000001 9.160712701970882 0.6315000000000001 Q 9.160712701970882 0.7260000000000001 9.198212701970881 0.7957500000000001 Q 9.235712701970881 0.8655000000000002 9.298712701970882 0.9022500000000001 Q 9.36171270197088 0.9390000000000001 9.438212701970881 0.9390000000000001 Q 9.51471270197088 0.9390000000000001 9.578462701970881 0.9022500000000001 Q 9.64221270197088 0.8655000000000002 9.679712701970882 0.7957500000000001 Q 9.717212701970881 0.7260000000000001 9.717212701970881 0.633 Q 9.717212701970881 0.54 9.679712701970882 0.4710000000000001 M 10.358500787908381 0.2572500000000001 Q 10.438750787908381 0.21000000000000008 10.545250787908381 0.21000000000000008 Q 10.654750787908382 0.21000000000000008 10.744000787908382 0.26250000000000007 Q 10.833250787908382 0.31500000000000006 10.884250787908382 0.4102500000000001 Q 10.935250787908382 0.5055000000000001 10.935250787908382 0.6315000000000001 Q 10.935250787908382 0.7560000000000001 10.884250787908382 0.8535000000000001 Q 10.833250787908382 0.9510000000000001 10.744000787908382 1.0050000000000001 Q 10.654750787908382 1.0590000000000002 10.545250787908381 1.0590000000000002 Q 10.440250787908381 1.0590000000000002 10.360000787908382 1.0117500000000001 Q 10.279750787908382 0.9645000000000001 10.237750787908382 0.8940000000000001 L 10.237750787908382 1.4355000000000002 L 10.101250787908382 1.4355000000000002 L 10.101250787908382 0.22350000000000003 L 10.237750787908382 0.22350000000000003 L 10.237750787908382 0.3750000000000001 Q 10.278250787908382 0.3045000000000001 10.358500787908381 0.2572500000000001 M 10.75825078790838 0.46950000000000003 Q 10.720750787908381 0.4005000000000001 10.657000787908382 0.36450000000000005 Q 10.593250787908381 0.3285000000000001 10.516750787908382 0.3285000000000001 Q 10.441750787908381 0.3285000000000001 10.378000787908382 0.3652500000000001 Q 10.314250787908382 0.40200000000000014 10.276000787908382 0.4717500000000001 Q 10.237750787908382 0.5415000000000001 10.237750787908382 0.633 Q 10.237750787908382 0.7260000000000001 10.276000787908382 0.7957500000000001 Q 10.314250787908382 0.8655000000000002 10.378000787908382 0.9022500000000001 Q 10.441750787908381 0.9390000000000001 10.516750787908382 0.9390000000000001 Q 10.593250787908381 0.9390000000000001 10.657000787908382 0.9022500000000001 Q 10.720750787908381 0.8655000000000002 10.75825078790838 0.7957500000000001 Q 10.795750787908382 0.7260000000000001 10.795750787908382 0.6315000000000001 Q 10.795750787908382 0.5385000000000001 10.75825078790838 0.46950000000000003 M 11.387538873845882 0.2572500000000001 Q 11.467788873845882 0.21000000000000008 11.574288873845882 0.21000000000000008 Q 11.683788873845883 0.21000000000000008 11.773038873845882 0.26250000000000007 Q 11.862288873845882 0.31500000000000006 11.913288873845882 0.4102500000000001 Q 11.964288873845883 0.5055000000000001 11.964288873845883 0.6315000000000001 Q 11.964288873845883 0.7560000000000001 11.913288873845882 0.8535000000000001 Q 11.862288873845882 0.9510000000000001 11.773038873845882 1.0050000000000001 Q 11.683788873845883 1.0590000000000002 11.574288873845882 1.0590000000000002 Q 11.469288873845882 1.0590000000000002 11.389038873845882 1.0117500000000001 Q 11.308788873845883 0.9645000000000001 11.266788873845883 0.8940000000000001 L 11.266788873845883 1.4355000000000002 L 11.130288873845883 1.4355000000000002 L 11.130288873845883 0.22350000000000003 L 11.266788873845883 0.22350000000000003 L 11.266788873845883 0.3750000000000001 Q 11.307288873845883 0.3045000000000001 11.387538873845882 0.2572500000000001 M 11.787288873845881 0.46950000000000003 Q 11.749788873845882 0.4005000000000001 11.686038873845883 0.36450000000000005 Q 11.622288873845882 0.3285000000000001 11.545788873845883 0.3285000000000001 Q 11.470788873845882 0.3285000000000001 11.407038873845883 0.3652500000000001 Q 11.343288873845882 0.40200000000000014 11.305038873845882 0.4717500000000001 Q 11.266788873845883 0.5415000000000001 11.266788873845883 0.633 Q 11.266788873845883 0.7260000000000001 11.305038873845882 0.7957500000000001 Q 11.343288873845882 0.8655000000000002 11.407038873845883 0.9022500000000001 Q 11.470788873845882 0.9390000000000001 11.545788873845883 0.9390000000000001 Q 11.622288873845882 0.9390000000000001 11.686038873845883 0.9022500000000001 Q 11.749788873845882 0.8655000000000002 11.787288873845881 0.7957500000000001 Q 11.824788873845883 0.7260000000000001 11.824788873845883 0.6315000000000001 Q 11.824788873845883 0.5385000000000001 11.787288873845881 0.46950000000000003"/></g><g/><g clip-path="url(#SvgjsClipPath1001)"><g clip-path="url(#SvgjsClipPath1000bd540099-e628-47e6-abe1-a5c2668d37c4)"><path d=" M 10.716947803187255 -1.52379813092229 L 11.149314930475661 -1.7734478016972277 L 11.14927927133114 -4.995340656816869 L 8.358951212748236 -6.606349487879597 L 5.568658813309851 -4.995394145533647 L 5.56869447245437 -1.7735012904140053 L 6.0010615997427745 -1.5238694492113263 L 6.0010259405982564 -4.7457979634754865 L 8.358951212748236 -6.1071036350464984 L 10.716912144042738 -4.745744474758709 L 10.716947803187255 -1.52379813092229 Z" fill="#3682ae" transform="matrix(1,0,0,1,0,0)" fill-rule="nonzero"/></g><g clip-path="url(#SvgjsClipPath1000bd540099-e628-47e6-abe1-a5c2668d37c4)"><path d=" M 9.981495777062742 -1.099204697138946 L 10.413845074778887 -1.3488187087693655 L 10.413809415634368 -4.570729393461265 L 8.358951212748236 -5.757109131596131 L 6.304128669006623 -4.570782882178044 L 6.304164328151141 -1.3488900270584034 L 6.736531455439547 -1.0992581858557235 L 6.736495796295028 -4.321168870547623 L 8.358969042320496 -5.257863278763033 L 9.981442288345963 -4.321133211403106 L 9.981495777062742 -1.099204697138946 Z" fill="#3682ae" transform="matrix(1,0,0,1,0,0)" fill-rule="nonzero"/></g><g clip-path="url(#SvgjsClipPath1000bd540099-e628-47e6-abe1-a5c2668d37c4)"><path d=" M 9.24599026222145 -3.8965397776197617 L 9.24602592136597 -0.6746112633556027 L 9.678393048654375 -0.9242252749860222 L 9.678339559937598 -4.146135959677922 L 8.358951212748236 -4.907886604884926 L 7.039598524703395 -4.146171618822441 L 7.039634183847913 -0.9242609341305403 L 7.472001311136319 -0.6746290929278613 L 7.4719656519918 -3.896557607192021 L 8.358969042320496 -4.408640752051827 L 9.24599026222145 -3.8965397776197617 Z" fill="#3682ae" transform="matrix(1,0,0,1,0,0)" fill-rule="nonzero"/></g><g clip-path="url(#SvgjsClipPath1000bd540099-e628-47e6-abe1-a5c2668d37c4)"><path d=" M 8.942923192957604 -0.4996140116304195 L 8.942887533813085 -3.721524696322319 L 8.51052040652468 -3.9711387079527385 L 8.510573895241457 -0.25 L 8.942923192957604 -0.4996140116304195 Z" fill="#3682ae" transform="matrix(1,0,0,1,0,0)" fill-rule="nonzero"/></g><g clip-path="url(#SvgjsClipPath1000bd540099-e628-47e6-abe1-a5c2668d37c4)"><path d=" M 8.207471166833091 -0.25 L 8.207417678116313 -3.9711565375249975 L 7.7750683804001675 -3.721542525894578 L 7.775104039544685 -0.4996318412026781 L 8.207471166833091 -0.25 Z" fill="#3682ae" transform="matrix(1,0,0,1,0,0)" fill-rule="nonzero"/></g></g></g><defs><clipPath id="SvgjsClipPath1001"><path d=" M 5.568658813309851 -6.606349487879597 h 5.58065611716581 v 6.356349487879597 h -5.58065611716581 Z"/></clipPath><clipPath id="SvgjsClipPath1000bd540099-e628-47e6-abe1-a5c2668d37c4"><path d=" M 5.568658813309851 -6.606349487879597 L 11.149314930475661 -6.606349487879597 L 11.149314930475661 -0.25 L 5.568658813309851 -0.25 Z"/></clipPath></defs></svg>